# xmcd
#
# Track frame offsets:
#	150
#	16052
#	40470
#	65459
#	90640
#	138888
#	153026
#	172014
#	181916
#	204847
#	217132
#
# Disc length: 3358 seconds
#
# Revision: 0
# Processed by: cddbd v1.5.2PL0 Copyright (c) Steve Scherf et al.
# Submitted via: dBpowerAMP V4.0
#
DISCID=8d0d1c0b
DTITLE=RICK DERRINGER - Jackhammer Blues
DYEAR=2002
DGENRE=Blues
TTITLE0=Shake Your Money Maker
TTITLE1=Wrapped Up In Love
TTITLE2=You've Got To Love Her With Feeling
TTITLE3=Street Corner Talking
TTITLE4=Somebody Loan Me A Dime
TTITLE5=Just A Little Bit
TTITLE6=All Your Love I Miss Loving
TTITLE7=Red Hot
TTITLE8=Crying Won't Help You Now
TTITLE9=Parchman Farm
TTITLE10=Texas
EXTD=
EXTT0=
EXTT1=
EXTT2=
EXTT3=
EXTT4=
EXTT5=
EXTT6=
EXTT7=
EXTT8=
EXTT9=
EXTT10=
PLAYORDER=
